<?xml version="1.0" encoding="utf-8"?>
<!-- Generator: Adobe Illustrator 16.0.0, SVG Export Plug-In . SVG Version: 6.00 Build 0)  -->
<!DOCTYPE svg PUBLIC "-//W3C//DTD SVG 1.1//EN" "http://www.w3.org/Graphics/SVG/1.1/DTD/svg11.dtd">
<svg version="1.1" id="Layer_1" xmlns="http://www.w3.org/2000/svg" xmlns:xlink="http://www.w3.org/1999/xlink" x="0px" y="0px"
	 width="182.991px" height="53.997px" viewBox="0 0 182.991 53.997" enable-background="new 0 0 182.991 53.997"
	 xml:space="preserve">
<g>
	<path d="M169.013,21.589c0.6,0.777,0.899,1.858,0.899,3.239h-7.368c0.116-1.425,0.522-2.516,1.217-3.272s1.615-1.135,2.764-1.135
		C167.585,20.421,168.413,20.81,169.013,21.589 M168.729,31.666c0.569-0.106,1.19-0.306,1.864-0.598v-0.986
		c-0.791,0.313-1.442,0.519-1.957,0.613c-0.517,0.096-1.113,0.143-1.793,0.143c-1.397,0-2.47-0.432-3.22-1.294
		c-0.749-0.862-1.131-2.112-1.146-3.75h8.586v-0.877c0-1.682-0.405-3.013-1.217-3.992s-1.92-1.469-3.322-1.469
		c-1.587,0-2.848,0.571-3.783,1.716c-0.936,1.144-1.404,2.667-1.404,4.566c0,1.923,0.484,3.418,1.453,4.485
		c0.969,1.068,2.319,1.601,4.053,1.601C167.529,31.824,168.158,31.771,168.729,31.666 M158.118,27.109
		c-0.245-0.395-0.611-0.747-1.102-1.058c-0.489-0.312-1.272-0.66-2.346-1.047c-1.287-0.461-2.152-0.878-2.595-1.25
		c-0.442-0.373-0.663-0.87-0.663-1.492c0-0.57,0.285-1.017,0.855-1.338s1.342-0.482,2.313-0.482c1.003,0,2.087,0.241,3.257,0.725
		l0.406-0.987c-1.156-0.483-2.376-0.724-3.663-0.724c-1.345,0-2.392,0.26-3.142,0.778c-0.749,0.52-1.124,1.225-1.124,2.116
		c0,0.563,0.123,1.04,0.368,1.431c0.244,0.392,0.607,0.742,1.091,1.054c0.481,0.311,1.319,0.681,2.511,1.112
		c1.111,0.395,1.91,0.797,2.396,1.206s0.729,0.914,0.729,1.514c0,0.65-0.305,1.172-0.915,1.562s-1.505,0.586-2.682,0.586
		c-1.33,0-2.595-0.299-3.794-0.898v1.174c0.936,0.488,2.201,0.733,3.794,0.733c1.491,0,2.643-0.287,3.454-0.859
		c0.812-0.574,1.218-1.396,1.218-2.462C158.486,27.969,158.363,27.505,158.118,27.109 M144.36,19.987
		c-0.557,0.355-1.079,0.971-1.568,1.849h-0.076l-0.11-2.15h-0.921v11.92h1.084v-6.579c0-1.315,0.326-2.405,0.977-3.268
		c0.651-0.863,1.484-1.294,2.501-1.294c0.533,0,1.05,0.062,1.546,0.186l0.209-1.041c-0.578-0.103-1.119-0.153-1.623-0.153
		C145.589,19.456,144.915,19.633,144.36,19.987 M136.05,21.589c0.6,0.777,0.899,1.858,0.899,3.239h-7.369
		c0.117-1.425,0.522-2.516,1.218-3.272c0.693-0.757,1.614-1.135,2.762-1.135C134.62,20.421,135.45,20.81,136.05,21.589
		 M135.765,31.666c0.57-0.106,1.191-0.306,1.863-0.598v-0.986c-0.789,0.313-1.44,0.519-1.957,0.613
		c-0.515,0.096-1.113,0.143-1.793,0.143c-1.396,0-2.469-0.432-3.218-1.294c-0.75-0.862-1.132-2.112-1.146-3.75h8.586v-0.877
		c0-1.682-0.406-3.013-1.217-3.992c-0.812-0.979-1.92-1.469-3.324-1.469c-1.586,0-2.846,0.571-3.782,1.716
		c-0.937,1.144-1.404,2.667-1.404,4.566c0,1.923,0.485,3.418,1.453,4.485c0.97,1.068,2.32,1.601,4.052,1.601
		C134.565,31.824,135.194,31.771,135.765,31.666 M124.827,31.605v-7.797c0-1.513-0.324-2.617-0.977-3.311
		c-0.65-0.695-1.625-1.042-2.928-1.042c-0.832,0-1.576,0.183-2.23,0.548s-1.176,0.889-1.562,1.567h-0.045
		c-0.533-1.41-1.74-2.115-3.617-2.115c-0.731,0-1.4,0.162-2.008,0.487c-0.606,0.325-1.074,0.784-1.404,1.376h-0.064l-0.23-1.634
		h-0.899v11.92h1.086v-6.579c0-1.601,0.285-2.765,0.854-3.493c0.57-0.727,1.48-1.091,2.731-1.091c1.843,0,2.763,1.005,2.763,3.017
		v8.146h1.107V24.62c0-1.439,0.293-2.495,0.878-3.169c0.584-0.673,1.487-1.009,2.708-1.009c0.936,0,1.63,0.268,2.084,0.8
		c0.453,0.534,0.68,1.383,0.68,2.545v7.818H124.827z M104.603,19.686h-1.086v11.92h1.086V19.686z M99.374,31.605v-7.797
		c0-1.513-0.324-2.617-0.976-3.311c-0.651-0.695-1.627-1.042-2.929-1.042c-0.832,0-1.576,0.183-2.23,0.548s-1.175,0.889-1.562,1.567
		h-0.045c-0.533-1.41-1.74-2.115-3.618-2.115c-0.731,0-1.4,0.162-2.007,0.487s-1.075,0.784-1.404,1.376h-0.065l-0.231-1.634h-0.899
		v11.92h1.086v-6.579c0-1.601,0.285-2.765,0.855-3.493c0.57-0.727,1.48-1.091,2.73-1.091c1.843,0,2.764,1.005,2.764,3.017v8.146
		h1.107V24.62c0-1.439,0.293-2.495,0.878-3.169c0.584-0.673,1.487-1.009,2.708-1.009c0.936,0,1.631,0.268,2.083,0.8
		c0.454,0.534,0.681,1.383,0.681,2.545v7.818H99.374z"/>
	<path d="M104.103,17.189c0.516,0,0.934-0.418,0.934-0.935c0-0.516-0.418-0.934-0.934-0.934s-0.934,0.418-0.934,0.934
		C103.169,16.771,103.587,17.189,104.103,17.189"/>
	<path fill="none" stroke="#000000" d="M68.172,34.452c-0.503-2.095-1.239-4.115-1.995-6.128c-1.252-3.331-2.514-6.658-3.754-9.994
		c-0.75-2.015-1.454-4.047-2.442-5.964c-0.888-1.725-1.976-3.297-3.479-4.55c-1.665-1.389-3.572-2.214-5.736-2.425
		c-0.314-0.03-0.629-0.051-0.944-0.076h-0.044c-0.07,0.008-0.141,0.017-0.212,0.023c-0.523,0.043-1.05,0.06-1.569,0.132
		c-1.444,0.202-2.804,0.687-4.124,1.29c-1.098,0.502-2.184,1.033-3.294,1.51c-0.674,0.289-1.354,0.452-2.035,0.492
		c-0.681-0.04-1.36-0.203-2.035-0.492c-1.11-0.477-2.195-1.008-3.294-1.51c-1.32-0.604-2.679-1.088-4.123-1.29
		c-0.519-0.072-1.046-0.089-1.57-0.132c-0.071-0.007-0.141-0.016-0.212-0.023h-0.043c-0.315,0.025-0.631,0.046-0.945,0.076
		c-2.164,0.211-4.07,1.036-5.736,2.425c-1.503,1.253-2.591,2.825-3.479,4.55c-0.987,1.917-1.692,3.949-2.441,5.964
		c-1.241,3.336-2.502,6.663-3.754,9.994c-0.757,2.013-1.492,4.033-1.996,6.128c-0.351,1.462-0.561,2.941-0.5,4.449
		c0.096,2.343,0.81,4.453,2.431,6.191c1.303,1.396,2.918,2.235,4.808,2.503c2.714,0.382,5.092-0.427,7.193-2.126
		c1.516-1.227,2.603-2.794,3.516-4.496c0.933-1.74,1.642-3.58,2.372-5.41c0.469-1.175,0.915-2.361,1.549-3.462
		c0.164-0.284,0.356-0.552,0.535-0.828c0.018,0.006,0.037,0.011,0.056,0.016c0.011,0.052,0.029,0.102,0.031,0.152
		c0.054,1.144,0.112,2.288,0.155,3.432c0.061,1.599,0.125,3.195,0.357,4.78c0.254,1.724,0.712,3.38,1.733,4.828
		c1.113,1.577,2.607,2.575,4.533,2.833c0.292,0.039,0.578,0.056,0.859,0.057c0.282-0.001,0.568-0.018,0.859-0.057
		c1.926-0.258,3.42-1.256,4.533-2.833c1.022-1.448,1.48-3.104,1.733-4.828c0.233-1.585,0.297-3.182,0.357-4.78
		c0.043-1.144,0.102-2.288,0.155-3.432c0.002-0.051,0.02-0.101,0.031-0.152c0.019-0.005,0.038-0.01,0.057-0.016
		c0.179,0.276,0.371,0.544,0.534,0.828c0.634,1.101,1.08,2.287,1.549,3.462c0.731,1.83,1.439,3.67,2.372,5.41
		c0.913,1.702,2.001,3.27,3.516,4.496c2.102,1.699,4.48,2.508,7.193,2.126c1.891-0.268,3.506-1.107,4.808-2.503
		c1.622-1.738,2.336-3.849,2.431-6.191C68.734,37.394,68.523,35.914,68.172,34.452z"/>
</g>
</svg>
